<svg width="1288" height="900" viewBox="0 0 1288 900" fill="none" xmlns="http://www.w3.org/2000/svg">
<path d="M1007 -62.5C1004 -61.7 997.7 -59.7 993 -58C979.6 -53 969.6 -51 958.6 -51H948.7L950.6 -48.9C953.4 -45.8 957.4 -44 961.7 -43.9L965.5 -43.8L961.1 -41.8C958.7 -40.7 951.6 -38.8 945.3 -37.6C934.6 -35.6 933.9 -35.4 935.7 -33.9C938.6 -31.3 941.2 -30.2 946.4 -29.5L951.3 -28.7L945.9 -25.3C940.4 -21.9 935.9 -20.3 928.3 -19.1C924.2 -18.5 924.1 -18.4 925.3 -16C927.3 -12 932.6 -9.79998 939.3 -10.3C943.6 -10.5 945 -10.3 944.6 -9.39998C942.6 -4.09998 942 9.70002 943 27.4C945.3 68.7 946.7 74.5 959 98.1C968.5 116.2 973.6 123.5 977.6 125.1C980.6 126.2 1005.1 129.7 1014.6 130.4C1025.5 131.2 1028.6 128.5 1043.3 105.3C1054.6 87.3 1058.2 80 1065.5 60.5C1077.8 27.6 1080.3 18 1080.4 3.50002C1080.5 -7.69998 1079 -11.8 1072.9 -17.8L1069.7 -20.9L1071.9 -25.9C1073 -28.6 1074 -31.9 1074 -33.1V-35.3L1071.5 -33L1068.9 -30.6L1069.6 -37.7C1071 -52.9 1067.2 -57.2 1063.9 -44C1061.8 -36.1 1060 -32.8 1060 -37.2C1060 -46.7 1048.8 -57.8 1034.9 -62.1C1027.7 -64.3 1015.2 -64.5 1007 -62.5Z" fill="black"/>
<path d="M665.3 100.9C663.5 102 661.8 104.1 661.4 105.5C660.7 108.4 661.3 118.5 662.5 121.5C662.9 122.6 661.2 121.4 658.8 118.8C652.4 112 643.7 107 638.3 107C628.3 107 626 116.7 632.1 133.4C633.7 137.7 635.9 142.8 637 144.7C639.5 148.9 639.6 150.8 637.3 148.8C634 145.9 626.9 142.9 622.1 142.3C616.3 141.6 613.7 143.6 612.1 149.7C610.5 155.5 612.2 160.1 617.7 164.9C620.2 167.2 622.6 169 623 169C623.4 169 622.6 174.3 621.4 180.7C620.1 187.2 618.5 198.9 617.9 206.7C616 228 617.9 237.9 627.3 256.5C632.4 266.8 641.4 279.2 648.8 286.4L653.8 291.3L677.2 283.2C690 278.8 703.9 274 708 272.6C716.3 269.8 716.8 269.3 726.1 255.8C733.8 244.4 740.4 231.1 742.9 221.9C745.1 214 750 186.3 750 181.8C750 179.9 751.1 178.3 754 176C758.1 172.7 760.6 167 759.4 163.4C756.8 155.3 754.2 153 747.5 153C745.6 153 744 152.8 744 152.6C744 152.4 745.2 150.1 746.6 147.6C750 141.6 749 140.1 742.8 141.7C740.4 142.3 738.4 142.8 738.3 142.7C738.2 142.6 738.6 140.4 739.2 137.9C741.6 127.6 733.2 114.2 720.7 108C711.8 103.7 708.5 103.2 707 106C705.8 108.2 706.1 112.6 707.6 116.5C708 117.6 705.9 115.9 702.8 112.7C691.9 101.6 673.4 95.8 665.3 100.9Z" fill="black"/>
<path d="M496.3 115.5C481.7 119.6 468.4 130.1 457.2 146.3C443.3 166.5 436 192.1 436 221C436 239 432.1 260.2 425.9 276.5C420.8 289.6 416.6 296 404.3 309.2C398.2 315.7 397.7 317.2 402 316C410.4 313.6 423.1 299.1 432.3 281.5C434.6 277.1 434.3 279.7 431.6 287.6C428.2 297.4 427.2 299.6 421.9 307.6C417.1 314.8 411.6 320.3 407.4 322.2C406.1 322.8 405 323.6 405 323.9C405 325.2 413.9 340.1 418.6 346.7C423.7 353.9 434.7 365.5 439.2 368.4C441.9 370.1 442 370.1 445.2 367.9C453.9 361.8 464.6 349.9 470.7 339.6C473.8 334.5 472.9 337.9 468.8 347.5C465.1 356 457.2 367.7 451.8 372.6L447.8 376.2L450 377.8C461.6 386.4 472.9 391.2 480.4 390.8L485.5 390.5L491 379.5C494.1 373.4 498 364.4 499.7 359.5C502.4 352 502.8 351.3 502.4 355C501.1 365.7 498.7 377.1 495.9 385.4C494.3 390.3 493.1 394.4 493.2 394.6C493.4 394.7 497.4 395.2 502.1 395.6L510.7 396.3L512.5 388.4C515.6 373.9 515.8 373.8 515.9 386.2C516 397.9 516 398 518.4 398C526.3 398 549 392.2 549 390.1C549 389.7 547.6 385.6 546 381.1C542.4 371.4 538.5 356.7 537.6 349.5C537.1 345.9 538.3 348.6 541.9 359.1C546.5 372.6 550.2 381.3 553.7 386.7C555.1 388.9 555.2 388.9 558.2 387C567.8 381.2 577.8 369.4 581.6 359.5L583.3 354.9L576.4 347.9C569.3 340.7 568.6 338.9 574.9 343.9C579.6 347.6 584.9 350.3 586.3 349.7C587 349.5 588.6 346.1 589.9 342.2L592.4 335.2L589.8 331.8C583.8 323.9 579.6 311.1 578.6 297.5C578.3 293.1 578.2 289.9 578.4 290.5C578.6 291 580.1 295.5 581.6 300.5C585.8 314.4 593.6 325 599.6 325C602.8 325 602.7 322.7 599.1 318.1C590.7 307.4 586.8 296 584.9 275.8C583.6 261.9 584.2 240.6 586.1 231.5C588 222.2 587.8 194.3 585.7 183.7C579.9 154.8 566.1 134.8 544 123.3C529.8 116 507.4 112.3 496.3 115.5Z" fill="black"/>
<path d="M1028.4 249.8C1006.4 274.4 987.4 295.8 986 297.3L983.5 300.1L945 298.1C923.8 297 892.3 295.3 875 294.4C857.7 293.5 843.3 292.4 843 292C842.7 291.6 838.5 291 833.5 290.6C828.6 290.2 812.8 289.1 798.4 288L772.3 286L767.4 288.6C752.9 296.3 683.3 337.5 648 359.3C622.5 375 598 391 598 392C598 392.4 593.7 398.5 588.4 405.6C557.9 446.4 524.9 476.1 493.4 491.2L483.3 496L478.4 494.5C468.8 491.7 460 483.9 454 472.8L451.3 467.8L449.1 470.6C445.6 475 440.2 487 438.4 494C436.1 503 436.9 516.5 440.1 524.4C444.9 536.1 455.5 544.2 472 549C481.7 551.8 504.6 552.8 518.7 551C531 549.5 551.8 544.2 563.3 539.6C574.2 535.3 591.8 525.7 602.3 518.3C611.4 511.9 626.2 498.1 631.6 490.9L635.4 486L650.6 509.2C660.4 524.3 668.2 535.1 672.8 540L679.8 547.4L686.8 542.8C715.2 523.9 756 482.8 800.2 428.5L810.7 415.5L828.1 410.6C849 404.8 902 387.3 932.8 376.1C958 366.9 1009.4 347.6 1015.5 345C1018.9 343.5 1021.5 340.6 1031 327.4C1046.5 305.8 1063.3 280.8 1073.1 264.2C1081.1 251 1093 227.6 1093 225.4C1093 224.3 1091.8 223.3 1076.9 211.7L1068.2 205L1028.4 249.8Z" fill="black"/>
<path d="M1156.6 381.5C1154.8 384.2 1154.7 385.9 1155.3 407.9C1155.8 428.5 1157.6 453.9 1159.6 470.7C1160.1 475.1 1160.6 476 1162.3 476C1164.1 476 1164.2 475.6 1163.7 470.2C1162.6 460.6 1160 417.7 1159.2 397.5L1158.5 378.6L1156.6 381.5Z" fill="black"/>
<path d="M1362.3 463.3C1360.3 466.3 1356 489.3 1350.9 523.5C1348.8 537.7 1349.8 537.2 1341.8 528.8C1334.7 521.5 1328.2 512.4 1324 504C1322.8 501.5 1321.7 499.4 1321.5 499.2C1321.4 499.1 1317.1 501.5 1311.9 504.7C1301.1 511.2 1288.7 516.5 1280.9 518C1271.4 519.8 1251.9 520.3 1237 519.1C1213.9 517.2 1179.4 510.7 1159.8 504.6C1156.7 503.6 1155 503.5 1155 504.1C1155 504.7 1152.3 509 1149 513.5C1140.9 524.7 1131.4 540.7 1123.3 556.5C1119.7 563.6 1115.8 570.2 1114.6 571.2C1110.8 574.4 1086.7 585.9 1077.5 588.9C1047.4 598.6 1009.5 603.1 956 603.4C939.2 603.4 921.2 603.3 916 603.1C910.5 602.8 906.6 603.1 906.6 603.6C910.4 627.3 911.3 706.3 908.6 767.5C906.5 812.9 905.9 845.7 907 861.1C909 892 913.4 931 927 1039.8C937.6 1124.6 940.2 1149.1 942.6 1181.8L943.2 1191H961C970.7 1191 982.1 1190.7 986.2 1190.4L993.7 1189.7L994.4 1168.6C997.7 1064.4 1013.6 805.5 1022.6 710.5C1026.2 671.9 1026.2 672 1026.9 672C1027.3 672 1029 681.6 1030.7 693.2C1032.5 704.9 1040.4 757.5 1048.4 810C1069.9 951.3 1089 1078.7 1096.5 1129C1100.1 1153.5 1103.3 1175.2 1103.6 1177.2C1104.3 1181.7 1102 1181.6 1129.5 1179C1141.1 1177.9 1150.7 1177 1151 1177C1151.3 1177 1151.3 1166.1 1151.1 1152.8C1150.8 1129.2 1152.6 1023.7 1153.9 993.5L1154.5 978.5L1164.4 1023.5C1176.7 1079.7 1185.9 1120.2 1186.5 1120.8C1186.7 1121.1 1191.1 1121.8 1196.1 1122.3C1206 1123.5 1222 1122.3 1229.5 1119.8L1233.5 1118.5L1234.7 1098C1235.4 1086.7 1237.1 1059.9 1238.5 1038.5C1243.8 958.7 1246 922.9 1246.7 904C1247.1 890.6 1247.6 885.4 1248.2 887.5C1249.6 892.3 1277 1062.1 1283 1103C1284.2 1111 1285.5 1118.4 1286 1119.6C1288 1124.5 1313.8 1125.6 1325 1121.2C1328 1120 1331.1 1118.6 1331.7 1118.2C1333.8 1116.8 1340.3 1070 1343.6 1031.5C1346.1 1003.8 1346.1 952 1343.8 932.3C1342.8 924.5 1341.3 914.6 1340.4 910.3C1338.3 899.6 1332.5 882.4 1329.1 876.4L1326.2 871.5L1331.7 860.7C1347.5 829.1 1363.8 783.9 1373.9 743.4C1386.3 693.9 1388.6 640.1 1379.8 602.5C1375.3 583.2 1366.9 563.1 1357 548L1352 540.5L1354.5 523.5C1355.9 514.1 1358.8 496.2 1361 483.6C1363.2 470.9 1364.8 460.5 1364.7 460.4C1364.6 460.2 1363.5 461.6 1362.3 463.3Z" fill="black"/>
<path d="M836.5 498.4C802.4 522.8 718.2 579.5 709.9 583.6C707.3 584.9 703.8 586.3 702.1 586.6L699.1 587.2L705.7 600.4C714.9 618.7 717.1 625 717.3 633.4L717.5 640.5L723.5 642.5C726.8 643.6 729.7 644.6 729.9 644.7C731.7 645.8 708.9 765.7 696.4 820.3C693.3 833.6 689.4 851 687.6 859C682.1 882.8 680.6 895.3 680.7 916C680.7 936.1 681.4 943.3 686.5 979.5C688.4 992.7 691.5 1015.2 693.5 1029.5C703.1 1099 722.9 1205 726.3 1205C727.4 1205 726.9 1201.8 721.9 1177C711.5 1125.2 703.8 1080 697 1031C694.7 1014.8 691.6 992.3 690 981C684.8 944.7 683.8 931.4 684.3 910C684.9 887.3 685.8 881.4 696 838C710.9 774.3 729.6 677.1 731.6 653.3C732.2 645.6 732.4 645.1 734.4 645.5C747.6 648.6 770.7 649.8 786.5 648.1C801.4 646.5 817.1 643 831.3 638.3L843 634.3L844 637.9C848 652.9 852.1 671.6 853.1 678.8C854.5 689.2 853.8 702.5 851.6 710.1L849.9 715.7L841.4 718C830.7 720.8 824.5 724 819.9 729C813.9 735.5 811.8 741.1 811.4 751.8C811.2 757.2 811.4 760.9 811.9 760.6C812.4 760.3 813.5 756.6 814.5 752.5C816.2 744.9 820.9 734.2 823.5 732C824.8 730.9 825 733.4 825 751.7C825 780.9 824 800 815.8 924.5C814.2 948.8 814.2 1014.4 815.8 1041C817 1061.3 824.4 1168.8 825.6 1182.7C825.9 1187.3 826.6 1190 827.3 1190C828.8 1190 828.2 1175.7 824.1 1113.9C822.4 1088.9 820.5 1058.6 819.8 1046.5C818 1014.4 818.3 952 820.3 919.5C825.8 832.8 829 768.7 829 745.7V727.9L833.5 725.9C835.9 724.8 844.4 722.4 852.2 720.4C871.3 715.7 879.6 713.2 881 711.5C883.2 708.8 880 709 867.2 712C860.1 713.6 854 715 853.7 715C853.3 715 853.7 713.1 854.5 710.9C858.3 700.2 858.3 682 854.4 663.2C852.9 655.8 848.5 637.2 847.5 633.9C847.1 632.7 849.2 631.2 855.6 628.1C873.1 619.4 897.7 600.9 897.3 596.5C897.2 594.7 888.3 574 876.5 548C874.1 542.8 867.6 528.5 862.1 516.2C856.6 503.9 851.4 492.8 850.8 491.5L849.5 489.1L836.5 498.4Z" fill="black"/>
<path d="M419.5 551.7C401.2 572.6 388.5 594.3 381.2 617C375.8 633.7 374.6 641.8 374.6 660.5C374.6 679.2 375.8 687.4 381.2 705.2C382.9 710.9 386.8 725.6 389.9 737.9L395.5 760.4L401 762.2C408.6 764.8 428.5 769.5 440 771.4C459.5 774.6 470.1 775.4 494 775.4C514.9 775.4 520.4 775.1 531.4 773.2C554 769.3 576.7 762.9 598.5 754.3L608.3 750.5L607.7 707C607 654.1 604.9 629 598.4 594C596.1 581.3 591.4 562.1 590.5 561.2C590.3 561 588.8 561.7 587.2 562.9C585.5 564 581.3 566.3 577.8 567.8C530.6 589 462.4 580.5 432.9 549.9C429.8 546.6 427 544 426.7 544C426.4 544 423.1 547.4 419.5 551.7Z" fill="black"/>
<path d="M884.5 619.6C879 623.2 871.9 627.5 868.8 629.1C865.7 630.7 862.9 632.4 862.6 632.9C862.2 633.4 863.1 636.7 864.5 640.2C865.8 643.7 868.4 650.5 870.2 655.4C874.4 666.7 876.3 668.3 886.3 668.8C894.4 669.2 898.5 668 903.8 663.6C906.4 661.4 907 660.1 907 657.2L906.9 653.5L905 657.2C902.5 661.9 897.3 665 890.7 665.7C884 666.4 878.6 664.7 876.2 661.2C874.7 659 870.2 647.6 866.4 635.8C865.9 634.6 867.1 633.5 871.2 631.5C878.4 627.8 891.9 618.8 894.9 615.6C899.1 611.1 895.1 612.6 884.5 619.6Z" fill="black"/>
<path d="M801.9 649.4C801.1 650.3 773.8 653.2 766.5 653.2C755.5 653.2 756.4 651.8 756.7 669.3C757.1 689.2 758.1 694 762.5 697.9C766.9 701.7 772.4 703.2 782.5 703.3C796.2 703.4 805.5 698.8 810.2 689.6C813.9 682.5 813.7 664.2 809.9 652.2C808.7 648.5 805.4 647.5 806.4 651.2C808 656.9 809.2 670 808.8 677C808.2 687.4 805.4 692.4 798 696.5C792.9 699.3 791.8 699.5 782 699.5C773.7 699.5 770.7 699.1 767.7 697.6C762 694.8 760.8 691.6 760.4 677.1C760.1 670.2 759.8 662.7 759.6 660.5L759.3 656.5L768.9 656.3C783.4 656 803.9 652.7 804.1 650.5C804.2 649.5 802.6 648.7 801.9 649.4Z" fill="black"/>
</svg>
